<!-- bg-remove-logo.svg
     Logo for background image removal app
     - Scalable SVG 512x512
     - Features: checkerboard background, scissors + erase stroke, modern gradient
-->
<svg xmlns="http://www.w3.org/2000/svg" width="512" height="512" viewBox="0 0 512 512" role="img" aria-labelledby="title desc">
  <title id="title">BG Remove Logo</title>
  <desc id="desc">A modern logo showing a checkerboard (transparency) being cut away by stylized scissors — suitable for a background-removal app.</desc>
  <defs>
    <!-- checkerboard pattern to imply transparency -->
    <pattern id="checker" x="0" y="0" width="32" height="32" patternUnits="userSpaceOnUse">
      <rect x="0" y="0" width="16" height="16" fill="#e6e6e6" />
      <rect x="16" y="16" width="16" height="16" fill="#e6e6e6" />
      <rect x="0" y="16" width="16" height="16" fill="#ffffff" />
      <rect x="16" y="0" width="16" height="16" fill="#ffffff" />
    </pattern>

    <!-- subtle glass gradient for the badge -->
    <linearGradient id="g1" x1="0" y1="0" x2="1" y2="1">
      <stop offset="0" stop-color="#3b82f6" stop-opacity="1" />
      <stop offset="1" stop-color="#06b6d4" stop-opacity="1" />
    </linearGradient>

    <!-- drop shadow filter -->
    <filter id="f1" x="-20%" y="-20%" width="140%" height="140%">
      <feDropShadow dx="0" dy="6" stdDeviation="10" flood-color="#0b1220" flood-opacity="0.18"/>
    </filter>
  </defs>

  <!-- rounded square badge with gradient and shadow -->
  <g filter="url(#f1)">
    <rect x="40" y="40" width="432" height="432" rx="64" ry="64" fill="url(#g1)"/>
  </g>

  <!-- inner panel holding checkerboard (the area that will be 'removed') -->
  <g transform="translate(96,112)">
    <rect x="0" y="0" width="320" height="240" rx="18" ry="18" fill="url(#checker)" stroke="#ffffff" stroke-opacity="0.12" stroke-width="2"/>

    <!-- a soft white mask shape to show an ongoing cut (curved diagonal) -->
    <path d="M16 28 C110 100, 210 10, 304 90 L304 212 C210 132, 110 232, 16 160 Z" fill="#ffffff" fill-opacity="0.06"/>
  </g>

  <!-- stylized scissors sitting above the checkerboard, pointing down-right -->
  <g transform="translate(196,156) rotate(18)">
    <!-- left handle -->
    <circle cx="-28" cy="20" r="26" fill="#0f172a" fill-opacity="0.06" stroke="#ffffff" stroke-opacity="0.22" stroke-width="3"/>
    <!-- right handle -->
    <circle cx="28" cy="20" r="26" fill="#0f172a" fill-opacity="0.06" stroke="#ffffff" stroke-opacity="0.22" stroke-width="3"/>

    <!-- blades -->
    <path d="M-8 -4 L88 68 L76 86 L-20 24 Z" fill="#ffffff" stroke="#0b1220" stroke-width="3" stroke-linejoin="round"/>
    <path d="M-8 6 L88 -66 L100 -48 L4 24 Z" fill="#0b1220" stroke="#ffffff" stroke-width="2" stroke-linejoin="round" opacity="0.95"/>

    <!-- pivot -->
    <circle cx="32" cy="8" r="8" fill="#fffb" stroke="#ffffff" stroke-opacity="0.6" stroke-width="1"/>
  </g>

  <!-- eraser / removed piece indicator: a rounded rectangle with a 'minus' sign -->
  <g transform="translate(320,320)">
    <rect x="0" y="0" width="104" height="64" rx="14" ry="14" fill="#ffffff" fill-opacity="0.95"/>
    <rect x="12" y="24" width="80" height="8" rx="4" ry="4" fill="#0b1220"/>
  </g>

  <!-- optional thin outline around the badge for clarity on white backgrounds -->
  <rect x="40" y="40" width="432" height="432" rx="64" ry="64" fill="none" stroke="#081225" stroke-opacity="0.06" stroke-width="1"/>

</svg>
